<svg width="24" height="24" viewBox="0 0 24 24" fill="none" xmlns="http://www.w3.org/2000/svg">
<path d="M14.4293 18.8191C14.2393 18.8191 14.0493 18.7491 13.8993 18.5991C13.7599 18.458 13.6816 18.2676 13.6816 18.0691C13.6816 17.8707 13.7599 17.6803 13.8993 17.5391L19.4393 11.9991L13.8993 6.45914C13.7599 6.318 13.6816 6.12757 13.6816 5.92914C13.6816 5.73071 13.7599 5.54028 13.8993 5.39914C14.1893 5.10914 14.6693 5.10914 14.9593 5.39914L21.0293 11.4691C21.3193 11.7591 21.3193 12.2391 21.0293 12.5291L14.9593 18.5991C14.8093 18.7491 14.6193 18.8191 14.4293 18.8191Z" fill="black"/>
<path d="M20.33 12.75H3.5C3.09 12.75 2.75 12.41 2.75 12C2.75 11.59 3.09 11.25 3.5 11.25H20.33C20.74 11.25 21.08 11.59 21.08 12C21.08 12.41 20.74 12.75 20.33 12.75Z" fill="black"/>
</svg>
